<svg id="visual" viewBox="0 0 900 600" width="900" height="600" xmlns="http://www.w3.org/2000/svg" xmlns:xlink="http://www.w3.org/1999/xlink" version="1.1"><g stroke-width="1" stroke-linejoin="bevel"><path d="M441 301L446 333.9L489 300Z" fill="#1c1c1c" stroke="#1c1c1c"></path><path d="M446 333.9L503 334.9L489 300Z" fill="#1a1a1a" stroke="#1a1a1a"></path><path d="M489 300L451 261.1L441 301Z" fill="#1a1a1a" stroke="#1a1a1a"></path><path d="M533 308L489 263.1L489 300Z" fill="#181818" stroke="#181818"></path><path d="M489 300L489 263.1L451 261.1Z" fill="#151515" stroke="#151515"></path><path d="M503 334.9L533 308L489 300Z" fill="#191919" stroke="#191919"></path><path d="M396 261.1L397 295L441 301Z" fill="#131313" stroke="#131313"></path><path d="M441 301L396 337.9L446 333.9Z" fill="#191919" stroke="#191919"></path><path d="M397 295L396 337.9L441 301Z" fill="#151515" stroke="#151515"></path><path d="M446 333.9L446 393.7L503 334.9Z" fill="#131313" stroke="#131313"></path><path d="M401 392.7L446 393.7L446 333.9Z" fill="#131313" stroke="#131313"></path><path d="M503 334.9L539 350.9L533 308Z" fill="#181818" stroke="#181818"></path><path d="M501 394.7L539 350.9L503 334.9Z" fill="#171717" stroke="#171717"></path><path d="M451 261.1L396 261.1L441 301Z" fill="#161616" stroke="#161616"></path><path d="M397 295L362 304L396 337.9Z" fill="#131313" stroke="#131313"></path><path d="M446 393.7L501 394.7L503 334.9Z" fill="#191919" stroke="#191919"></path><path d="M577 296L535 250.1L533 308Z" fill="#181818" stroke="#181818"></path><path d="M533 308L535 250.1L489 263.1Z" fill="#151515" stroke="#151515"></path><path d="M489 263.1L457 213.3L451 261.1Z" fill="#151515" stroke="#151515"></path><path d="M451 261.1L401 213.3L396 261.1Z" fill="#151515" stroke="#151515"></path><path d="M497 204.3L457 213.3L489 263.1Z" fill="#131313" stroke="#131313"></path><path d="M501 394.7L536 386.7L539 350.9Z" fill="#141414" stroke="#141414"></path><path d="M396 337.9L401 392.7L446 333.9Z" fill="#1b1b1b" stroke="#1b1b1b"></path><path d="M364 256.1L362 304L397 295Z" fill="#1b1b1b" stroke="#1b1b1b"></path><path d="M396 337.9L360 350.9L401 392.7Z" fill="#161616" stroke="#161616"></path><path d="M362 304L360 350.9L396 337.9Z" fill="#1a1a1a" stroke="#1a1a1a"></path><path d="M591 351.9L577 296L539 350.9Z" fill="#1a1a1a" stroke="#1a1a1a"></path><path d="M539 350.9L577 296L533 308Z" fill="#1c1c1c" stroke="#1c1c1c"></path><path d="M548 219.3L497 204.3L535 250.1Z" fill="#1a1a1a" stroke="#1a1a1a"></path><path d="M535 250.1L497 204.3L489 263.1Z" fill="#131313" stroke="#131313"></path><path d="M401 392.7L442 426.6L446 393.7Z" fill="#191919" stroke="#191919"></path><path d="M446 393.7L500 424.6L501 394.7Z" fill="#1c1c1c" stroke="#1c1c1c"></path><path d="M501 394.7L500 424.6L536 386.7Z" fill="#1b1b1b" stroke="#1b1b1b"></path><path d="M442 426.6L500 424.6L446 393.7Z" fill="#1a1a1a" stroke="#1a1a1a"></path><path d="M401 213.3L364 256.1L396 261.1Z" fill="#1b1b1b" stroke="#1b1b1b"></path><path d="M396 261.1L364 256.1L397 295Z" fill="#1a1a1a" stroke="#1a1a1a"></path><path d="M362 304L318 350.9L360 350.9Z" fill="#1b1b1b" stroke="#1b1b1b"></path><path d="M443 180.4L401 213.3L457 213.3Z" fill="#161616" stroke="#161616"></path><path d="M457 213.3L401 213.3L451 261.1Z" fill="#1a1a1a" stroke="#1a1a1a"></path><path d="M361 387.7L397 419.6L401 392.7Z" fill="#1a1a1a" stroke="#1a1a1a"></path><path d="M401 392.7L397 419.6L442 426.6Z" fill="#1a1a1a" stroke="#1a1a1a"></path><path d="M590 254.1L548 219.3L535 250.1Z" fill="#151515" stroke="#151515"></path><path d="M360 350.9L361 387.7L401 392.7Z" fill="#161616" stroke="#161616"></path><path d="M576 386.7L539 350.9L536 386.7Z" fill="#1b1b1b" stroke="#1b1b1b"></path><path d="M576 386.7L591 351.9L539 350.9Z" fill="#1b1b1b" stroke="#1b1b1b"></path><path d="M546 433.6L576 386.7L536 386.7Z" fill="#191919" stroke="#191919"></path><path d="M490 179.4L457 213.3L497 204.3Z" fill="#151515" stroke="#151515"></path><path d="M490 179.4L443 180.4L457 213.3Z" fill="#171717" stroke="#171717"></path><path d="M548 179.4L490 179.4L497 204.3Z" fill="#151515" stroke="#151515"></path><path d="M630 300L590 254.1L577 296Z" fill="#1a1a1a" stroke="#1a1a1a"></path><path d="M577 296L590 254.1L535 250.1Z" fill="#181818" stroke="#181818"></path><path d="M493 471.4L546 433.6L500 424.6Z" fill="#161616" stroke="#161616"></path><path d="M500 424.6L546 433.6L536 386.7Z" fill="#191919" stroke="#191919"></path><path d="M362 172.4L360 207.3L401 213.3Z" fill="#141414" stroke="#141414"></path><path d="M401 213.3L360 207.3L364 256.1Z" fill="#141414" stroke="#141414"></path><path d="M311 292L318 350.9L362 304Z" fill="#181818" stroke="#181818"></path><path d="M311 292L362 304L364 256.1Z" fill="#1b1b1b" stroke="#1b1b1b"></path><path d="M360 350.9L323 391.7L361 387.7Z" fill="#1b1b1b" stroke="#1b1b1b"></path><path d="M361 387.7L356 426.6L397 419.6Z" fill="#181818" stroke="#181818"></path><path d="M458 123.6L412 171.4L443 180.4Z" fill="#171717" stroke="#171717"></path><path d="M443 180.4L412 171.4L401 213.3Z" fill="#1b1b1b" stroke="#1b1b1b"></path><path d="M632 248.1L590 223.3L590 254.1Z" fill="#181818" stroke="#181818"></path><path d="M590 254.1L590 223.3L548 219.3Z" fill="#161616" stroke="#161616"></path><path d="M548 219.3L548 179.4L497 204.3Z" fill="#1b1b1b" stroke="#1b1b1b"></path><path d="M305 257.1L311 292L364 256.1Z" fill="#1a1a1a" stroke="#1a1a1a"></path><path d="M402 463.4L452 469.4L442 426.6Z" fill="#181818" stroke="#181818"></path><path d="M442 426.6L452 469.4L500 424.6Z" fill="#1a1a1a" stroke="#1a1a1a"></path><path d="M402 463.4L442 426.6L397 419.6Z" fill="#181818" stroke="#181818"></path><path d="M323 391.7L356 426.6L361 387.7Z" fill="#151515" stroke="#151515"></path><path d="M579 170.4L548 179.4L548 219.3Z" fill="#1a1a1a" stroke="#1a1a1a"></path><path d="M490 179.4L458 123.6L443 180.4Z" fill="#161616" stroke="#161616"></path><path d="M452 469.4L493 471.4L500 424.6Z" fill="#1a1a1a" stroke="#1a1a1a"></path><path d="M318 350.9L323 391.7L360 350.9Z" fill="#131313" stroke="#131313"></path><path d="M356 426.6L402 463.4L397 419.6Z" fill="#171717" stroke="#171717"></path><path d="M633 336.9L630 300L591 351.9Z" fill="#1c1c1c" stroke="#1c1c1c"></path><path d="M591 351.9L630 300L577 296Z" fill="#1a1a1a" stroke="#1a1a1a"></path><path d="M622 392.7L591 351.9L576 386.7Z" fill="#131313" stroke="#131313"></path><path d="M622 392.7L633 336.9L591 351.9Z" fill="#181818" stroke="#181818"></path><path d="M308 220.3L305 257.1L364 256.1Z" fill="#181818" stroke="#181818"></path><path d="M272 375.7L323 391.7L318 350.9Z" fill="#1c1c1c" stroke="#1c1c1c"></path><path d="M272 375.7L313 421.6L323 391.7Z" fill="#141414" stroke="#141414"></path><path d="M593 436.6L576 386.7L546 433.6Z" fill="#151515" stroke="#151515"></path><path d="M593 436.6L622 392.7L576 386.7Z" fill="#141414" stroke="#141414"></path><path d="M412 171.4L362 172.4L401 213.3Z" fill="#1a1a1a" stroke="#1a1a1a"></path><path d="M360 207.3L308 220.3L364 256.1Z" fill="#191919" stroke="#191919"></path><path d="M575 480.4L593 436.6L546 433.6Z" fill="#131313" stroke="#131313"></path><path d="M630 300L632 248.1L590 254.1Z" fill="#181818" stroke="#181818"></path><path d="M590 223.3L579 170.4L548 219.3Z" fill="#141414" stroke="#141414"></path><path d="M678 264.1L632 248.1L630 300Z" fill="#161616" stroke="#161616"></path><path d="M313 177.4L308 220.3L360 207.3Z" fill="#1a1a1a" stroke="#1a1a1a"></path><path d="M621 177.4L579 170.4L590 223.3Z" fill="#191919" stroke="#191919"></path><path d="M548 179.4L497 133.6L490 179.4Z" fill="#1a1a1a" stroke="#1a1a1a"></path><path d="M545 128.6L497 133.6L548 179.4Z" fill="#1c1c1c" stroke="#1c1c1c"></path><path d="M412 171.4L396 123.6L362 172.4Z" fill="#141414" stroke="#141414"></path><path d="M497 507.3L547 480.4L493 471.4Z" fill="#181818" stroke="#181818"></path><path d="M493 471.4L547 480.4L546 433.6Z" fill="#1c1c1c" stroke="#1c1c1c"></path><path d="M279 308L318 350.9L311 292Z" fill="#1b1b1b" stroke="#1b1b1b"></path><path d="M323 391.7L313 421.6L356 426.6Z" fill="#1c1c1c" stroke="#1c1c1c"></path><path d="M356 426.6L368 474.4L402 463.4Z" fill="#161616" stroke="#161616"></path><path d="M275 258.1L311 292L305 257.1Z" fill="#1a1a1a" stroke="#1a1a1a"></path><path d="M275 258.1L279 308L311 292Z" fill="#1b1b1b" stroke="#1b1b1b"></path><path d="M321 470.4L368 474.4L356 426.6Z" fill="#131313" stroke="#131313"></path><path d="M402 463.4L456 504.3L452 469.4Z" fill="#1b1b1b" stroke="#1b1b1b"></path><path d="M452 469.4L456 504.3L493 471.4Z" fill="#1a1a1a" stroke="#1a1a1a"></path><path d="M397 512.3L456 504.3L402 463.4Z" fill="#131313" stroke="#131313"></path><path d="M497 133.6L458 123.6L490 179.4Z" fill="#191919" stroke="#191919"></path><path d="M676 223.3L632 219.3L632 248.1Z" fill="#1a1a1a" stroke="#1a1a1a"></path><path d="M632 248.1L632 219.3L590 223.3Z" fill="#151515" stroke="#151515"></path><path d="M456 504.3L497 507.3L493 471.4Z" fill="#1b1b1b" stroke="#1b1b1b"></path><path d="M277 219.3L275 258.1L305 257.1Z" fill="#191919" stroke="#191919"></path><path d="M547 480.4L575 480.4L546 433.6Z" fill="#141414" stroke="#141414"></path><path d="M593 436.6L632 434.6L622 392.7Z" fill="#1a1a1a" stroke="#1a1a1a"></path><path d="M541 506.3L575 480.4L547 480.4Z" fill="#191919" stroke="#191919"></path><path d="M216 304L268 345.9L279 308Z" fill="#151515" stroke="#151515"></path><path d="M279 308L268 345.9L318 350.9Z" fill="#1a1a1a" stroke="#1a1a1a"></path><path d="M579 170.4L545 128.6L548 179.4Z" fill="#1a1a1a" stroke="#1a1a1a"></path><path d="M498 89.7L445 93.7L458 123.6Z" fill="#151515" stroke="#151515"></path><path d="M591 127.6L545 128.6L579 170.4Z" fill="#151515" stroke="#151515"></path><path d="M458 123.6L396 123.6L412 171.4Z" fill="#181818" stroke="#181818"></path><path d="M362 172.4L313 177.4L360 207.3Z" fill="#181818" stroke="#181818"></path><path d="M268 345.9L272 375.7L318 350.9Z" fill="#171717" stroke="#171717"></path><path d="M324 135.6L313 177.4L362 172.4Z" fill="#191919" stroke="#191919"></path><path d="M308 220.3L277 219.3L305 257.1Z" fill="#181818" stroke="#181818"></path><path d="M621 477.4L632 434.6L593 436.6Z" fill="#191919" stroke="#191919"></path><path d="M622 392.7L676 351.9L633 336.9Z" fill="#1a1a1a" stroke="#1a1a1a"></path><path d="M497 507.3L541 506.3L547 480.4Z" fill="#171717" stroke="#171717"></path><path d="M632 219.3L621 177.4L590 223.3Z" fill="#1a1a1a" stroke="#1a1a1a"></path><path d="M360 522.3L397 512.3L368 474.4Z" fill="#181818" stroke="#181818"></path><path d="M368 474.4L397 512.3L402 463.4Z" fill="#151515" stroke="#151515"></path><path d="M456 504.3L489 554.1L497 507.3Z" fill="#191919" stroke="#191919"></path><path d="M575 549.1L585 518.3L541 506.3Z" fill="#151515" stroke="#151515"></path><path d="M313 177.4L277 219.3L308 220.3Z" fill="#131313" stroke="#131313"></path><path d="M275 258.1L230 265.1L279 308Z" fill="#1b1b1b" stroke="#1b1b1b"></path><path d="M278 435.6L321 470.4L313 421.6Z" fill="#181818" stroke="#181818"></path><path d="M313 421.6L321 470.4L356 426.6Z" fill="#1a1a1a" stroke="#1a1a1a"></path><path d="M682 380.7L676 351.9L622 392.7Z" fill="#191919" stroke="#191919"></path><path d="M633 336.9L679 296L630 300Z" fill="#151515" stroke="#151515"></path><path d="M632 219.3L680 180.4L621 177.4Z" fill="#151515" stroke="#151515"></path><path d="M396 123.6L362 126.6L362 172.4Z" fill="#161616" stroke="#161616"></path><path d="M676 351.9L679 296L633 336.9Z" fill="#1b1b1b" stroke="#1b1b1b"></path><path d="M679 296L678 264.1L630 300Z" fill="#151515" stroke="#151515"></path><path d="M498 89.7L458 123.6L497 133.6Z" fill="#131313" stroke="#131313"></path><path d="M458 123.6L445 93.7L396 123.6Z" fill="#1a1a1a" stroke="#1a1a1a"></path><path d="M396 123.6L361 92.7L362 126.6Z" fill="#1b1b1b" stroke="#1b1b1b"></path><path d="M273 469.4L278 435.6L234 470.4Z" fill="#1a1a1a" stroke="#1a1a1a"></path><path d="M272 375.7L278 435.6L313 421.6Z" fill="#161616" stroke="#161616"></path><path d="M628 130.6L591 127.6L621 177.4Z" fill="#1a1a1a" stroke="#1a1a1a"></path><path d="M621 177.4L591 127.6L579 170.4Z" fill="#191919" stroke="#191919"></path><path d="M545 128.6L498 89.7L497 133.6Z" fill="#181818" stroke="#181818"></path><path d="M622 507.3L621 477.4L575 480.4Z" fill="#1b1b1b" stroke="#1b1b1b"></path><path d="M575 480.4L621 477.4L593 436.6Z" fill="#191919" stroke="#191919"></path><path d="M667 422.6L682 380.7L622 392.7Z" fill="#181818" stroke="#181818"></path><path d="M667 422.6L622 392.7L632 434.6Z" fill="#161616" stroke="#161616"></path><path d="M676 351.9L710 347.9L679 296Z" fill="#191919" stroke="#191919"></path><path d="M679 296L718 290L678 264.1Z" fill="#191919" stroke="#191919"></path><path d="M544 85.7L498 89.7L545 128.6Z" fill="#141414" stroke="#141414"></path><path d="M361 92.7L324 135.6L362 126.6Z" fill="#1c1c1c" stroke="#1c1c1c"></path><path d="M362 126.6L324 135.6L362 172.4Z" fill="#181818" stroke="#181818"></path><path d="M313 177.4L264 180.4L277 219.3Z" fill="#181818" stroke="#181818"></path><path d="M683 467.4L667 422.6L632 434.6Z" fill="#181818" stroke="#181818"></path><path d="M678 264.1L676 223.3L632 248.1Z" fill="#1a1a1a" stroke="#1a1a1a"></path><path d="M311 516.3L360 522.3L321 470.4Z" fill="#1a1a1a" stroke="#1a1a1a"></path><path d="M321 470.4L360 522.3L368 474.4Z" fill="#151515" stroke="#151515"></path><path d="M407 551.1L457 555.1L456 504.3Z" fill="#1a1a1a" stroke="#1a1a1a"></path><path d="M541 506.3L585 518.3L575 480.4Z" fill="#191919" stroke="#191919"></path><path d="M536 564.1L541 506.3L497 507.3Z" fill="#1a1a1a" stroke="#1a1a1a"></path><path d="M445 49.9L403 82.7L445 93.7Z" fill="#151515" stroke="#151515"></path><path d="M445 93.7L403 82.7L396 123.6Z" fill="#191919" stroke="#191919"></path><path d="M230 219.3L275 258.1L277 219.3Z" fill="#131313" stroke="#131313"></path><path d="M230 219.3L230 265.1L275 258.1Z" fill="#131313" stroke="#131313"></path><path d="M268 345.9L219 387.7L272 375.7Z" fill="#151515" stroke="#151515"></path><path d="M407 551.1L456 504.3L397 512.3Z" fill="#1c1c1c" stroke="#1c1c1c"></path><path d="M457 555.1L489 554.1L456 504.3Z" fill="#1a1a1a" stroke="#1a1a1a"></path><path d="M591 127.6L544 85.7L545 128.6Z" fill="#131313" stroke="#131313"></path><path d="M498 89.7L445 49.9L445 93.7Z" fill="#141414" stroke="#141414"></path><path d="M268 120.6L264 180.4L313 177.4Z" fill="#191919" stroke="#191919"></path><path d="M360 522.3L407 551.1L397 512.3Z" fill="#151515" stroke="#151515"></path><path d="M403 82.7L361 92.7L396 123.6Z" fill="#191919" stroke="#191919"></path><path d="M227 131.6L229 178.4L264 180.4Z" fill="#141414" stroke="#141414"></path><path d="M673 129.6L628 130.6L621 177.4Z" fill="#131313" stroke="#131313"></path><path d="M591 127.6L592 76.7L544 85.7Z" fill="#181818" stroke="#181818"></path><path d="M715 394.7L710 347.9L682 380.7Z" fill="#1b1b1b" stroke="#1b1b1b"></path><path d="M682 380.7L710 347.9L676 351.9Z" fill="#191919" stroke="#191919"></path><path d="M678 264.1L721 222.3L676 223.3Z" fill="#1a1a1a" stroke="#1a1a1a"></path><path d="M278 435.6L273 469.4L321 470.4Z" fill="#1b1b1b" stroke="#1b1b1b"></path><path d="M360 522.3L363 559.1L407 551.1Z" fill="#1c1c1c" stroke="#1c1c1c"></path><path d="M234 420.6L278 435.6L272 375.7Z" fill="#131313" stroke="#131313"></path><path d="M637 557.1L622 507.3L585 518.3Z" fill="#171717" stroke="#171717"></path><path d="M585 518.3L622 507.3L575 480.4Z" fill="#161616" stroke="#161616"></path><path d="M621 477.4L683 467.4L632 434.6Z" fill="#1a1a1a" stroke="#1a1a1a"></path><path d="M667 422.6L715 394.7L682 380.7Z" fill="#1a1a1a" stroke="#1a1a1a"></path><path d="M230 265.1L216 304L279 308Z" fill="#171717" stroke="#171717"></path><path d="M216 304L217 340.9L268 345.9Z" fill="#181818" stroke="#181818"></path><path d="M721 222.3L680 180.4L676 223.3Z" fill="#141414" stroke="#141414"></path><path d="M676 223.3L680 180.4L632 219.3Z" fill="#181818" stroke="#181818"></path><path d="M264 180.4L230 219.3L277 219.3Z" fill="#1a1a1a" stroke="#1a1a1a"></path><path d="M230 265.1L183 253.1L216 304Z" fill="#1b1b1b" stroke="#1b1b1b"></path><path d="M710 347.9L718 290L679 296Z" fill="#131313" stroke="#131313"></path><path d="M275 506.3L311 516.3L321 470.4Z" fill="#1c1c1c" stroke="#1c1c1c"></path><path d="M219 387.7L234 420.6L272 375.7Z" fill="#131313" stroke="#131313"></path><path d="M217 340.9L219 387.7L268 345.9Z" fill="#151515" stroke="#151515"></path><path d="M536 564.1L575 549.1L541 506.3Z" fill="#161616" stroke="#161616"></path><path d="M489 554.1L536 564.1L497 507.3Z" fill="#191919" stroke="#191919"></path><path d="M494 600L536 564.1L489 554.1Z" fill="#1a1a1a" stroke="#1a1a1a"></path><path d="M459 600L489 554.1L457 555.1Z" fill="#181818" stroke="#181818"></path><path d="M767 307L723 266.1L718 290Z" fill="#1c1c1c" stroke="#1c1c1c"></path><path d="M718 290L723 266.1L678 264.1Z" fill="#181818" stroke="#181818"></path><path d="M719 434.6L715 394.7L667 422.6Z" fill="#1c1c1c" stroke="#1c1c1c"></path><path d="M768 333.9L767 307L718 290Z" fill="#1a1a1a" stroke="#1a1a1a"></path><path d="M494 40.9L445 49.9L498 89.7Z" fill="#1a1a1a" stroke="#1a1a1a"></path><path d="M403 82.7L400 51.9L361 92.7Z" fill="#161616" stroke="#161616"></path><path d="M316 555.1L363 559.1L360 522.3Z" fill="#181818" stroke="#181818"></path><path d="M413 600L459 600L457 555.1Z" fill="#141414" stroke="#141414"></path><path d="M677 515.3L683 467.4L621 477.4Z" fill="#151515" stroke="#151515"></path><path d="M677 515.3L621 477.4L622 507.3Z" fill="#1c1c1c" stroke="#1c1c1c"></path><path d="M633 92.7L591 127.6L628 130.6Z" fill="#191919" stroke="#191919"></path><path d="M633 92.7L592 76.7L591 127.6Z" fill="#131313" stroke="#131313"></path><path d="M542 44.9L494 40.9L498 89.7Z" fill="#1c1c1c" stroke="#1c1c1c"></path><path d="M445 49.9L400 51.9L403 82.7Z" fill="#181818" stroke="#181818"></path><path d="M268 120.6L313 177.4L324 135.6Z" fill="#1a1a1a" stroke="#1a1a1a"></path><path d="M273 469.4L275 506.3L321 470.4Z" fill="#1b1b1b" stroke="#1b1b1b"></path><path d="M311 516.3L316 555.1L360 522.3Z" fill="#151515" stroke="#151515"></path><path d="M234 470.4L275 506.3L273 469.4Z" fill="#181818" stroke="#181818"></path><path d="M723 266.1L721 222.3L678 264.1Z" fill="#1b1b1b" stroke="#1b1b1b"></path><path d="M673 129.6L633 92.7L628 130.6Z" fill="#1a1a1a" stroke="#1a1a1a"></path><path d="M317 83.7L324 135.6L361 92.7Z" fill="#1b1b1b" stroke="#1b1b1b"></path><path d="M264 180.4L229 178.4L230 219.3Z" fill="#141414" stroke="#141414"></path><path d="M230 219.3L183 253.1L230 265.1Z" fill="#141414" stroke="#141414"></path><path d="M351 40.9L317 83.7L361 92.7Z" fill="#1c1c1c" stroke="#1c1c1c"></path><path d="M542 44.9L498 89.7L544 85.7Z" fill="#161616" stroke="#161616"></path><path d="M362 0L351 40.9L400 51.9Z" fill="#141414" stroke="#141414"></path><path d="M317 83.7L268 120.6L324 135.6Z" fill="#161616" stroke="#161616"></path><path d="M673 129.6L621 177.4L680 180.4Z" fill="#161616" stroke="#161616"></path><path d="M729 168.4L673 129.6L680 180.4Z" fill="#1a1a1a" stroke="#1a1a1a"></path><path d="M183 432.6L234 470.4L234 420.6Z" fill="#171717" stroke="#171717"></path><path d="M234 420.6L234 470.4L278 435.6Z" fill="#151515" stroke="#151515"></path><path d="M575 41.9L544 85.7L592 76.7Z" fill="#171717" stroke="#171717"></path><path d="M575 41.9L542 44.9L544 85.7Z" fill="#1a1a1a" stroke="#1a1a1a"></path><path d="M683 467.4L719 434.6L667 422.6Z" fill="#151515" stroke="#151515"></path><path d="M768 333.9L718 290L710 347.9Z" fill="#1c1c1c" stroke="#1c1c1c"></path><path d="M270 565.1L311 516.3L275 506.3Z" fill="#161616" stroke="#161616"></path><path d="M270 565.1L316 555.1L311 516.3Z" fill="#181818" stroke="#181818"></path><path d="M413 600L407 551.1L363 559.1Z" fill="#191919" stroke="#191919"></path><path d="M413 600L457 555.1L407 551.1Z" fill="#141414" stroke="#141414"></path><path d="M536 564.1L540 600L575 549.1Z" fill="#1a1a1a" stroke="#1a1a1a"></path><path d="M459 600L494 600L489 554.1Z" fill="#141414" stroke="#141414"></path><path d="M182 217.3L183 253.1L230 219.3Z" fill="#1c1c1c" stroke="#1c1c1c"></path><path d="M174 337.9L183 382.7L217 340.9Z" fill="#1a1a1a" stroke="#1a1a1a"></path><path d="M217 340.9L183 382.7L219 387.7Z" fill="#181818" stroke="#181818"></path><path d="M219 387.7L183 432.6L234 420.6Z" fill="#1a1a1a" stroke="#1a1a1a"></path><path d="M174 337.9L217 340.9L216 304Z" fill="#191919" stroke="#191919"></path><path d="M361 600L413 600L363 559.1Z" fill="#1a1a1a" stroke="#1a1a1a"></path><path d="M637 557.1L585 518.3L575 549.1Z" fill="#131313" stroke="#131313"></path><path d="M637 557.1L677 515.3L622 507.3Z" fill="#1c1c1c" stroke="#1c1c1c"></path><path d="M683 467.4L714 475.4L719 434.6Z" fill="#171717" stroke="#171717"></path><path d="M170 304L174 337.9L216 304Z" fill="#1b1b1b" stroke="#1b1b1b"></path><path d="M629 46.9L575 41.9L592 76.7Z" fill="#151515" stroke="#151515"></path><path d="M535 0L487 0L494 40.9Z" fill="#161616" stroke="#161616"></path><path d="M183 253.1L170 304L216 304Z" fill="#151515" stroke="#151515"></path><path d="M494 600L540 600L536 564.1Z" fill="#171717" stroke="#171717"></path><path d="M409 0L400 51.9L445 49.9Z" fill="#191919" stroke="#191919"></path><path d="M400 51.9L351 40.9L361 92.7Z" fill="#161616" stroke="#161616"></path><path d="M228 79.7L227 131.6L268 120.6Z" fill="#1a1a1a" stroke="#1a1a1a"></path><path d="M677 515.3L714 475.4L683 467.4Z" fill="#161616" stroke="#161616"></path><path d="M592 600L637 557.1L575 549.1Z" fill="#1c1c1c" stroke="#1c1c1c"></path><path d="M185 177.4L182 217.3L229 178.4Z" fill="#1b1b1b" stroke="#1b1b1b"></path><path d="M229 178.4L182 217.3L230 219.3Z" fill="#1b1b1b" stroke="#1b1b1b"></path><path d="M130 296L140 333.9L170 304Z" fill="#151515" stroke="#151515"></path><path d="M268 120.6L227 131.6L264 180.4Z" fill="#161616" stroke="#161616"></path><path d="M263 77.7L268 120.6L317 83.7Z" fill="#141414" stroke="#141414"></path><path d="M761 210.3L729 168.4L721 222.3Z" fill="#1c1c1c" stroke="#1c1c1c"></path><path d="M721 222.3L729 168.4L680 180.4Z" fill="#141414" stroke="#141414"></path><path d="M673 129.6L679 93.7L633 92.7Z" fill="#1a1a1a" stroke="#1a1a1a"></path><path d="M633 92.7L629 46.9L592 76.7Z" fill="#1a1a1a" stroke="#1a1a1a"></path><path d="M769 254.1L721 222.3L723 266.1Z" fill="#151515" stroke="#151515"></path><path d="M710 347.9L715 394.7L771 387.7Z" fill="#1c1c1c" stroke="#1c1c1c"></path><path d="M768 333.9L710 347.9L771 387.7Z" fill="#181818" stroke="#181818"></path><path d="M771 387.7L715 394.7L760 432.6Z" fill="#1c1c1c" stroke="#1c1c1c"></path><path d="M316 555.1L361 600L363 559.1Z" fill="#171717" stroke="#171717"></path><path d="M183 382.7L183 432.6L219 387.7Z" fill="#181818" stroke="#181818"></path><path d="M234 470.4L230 516.3L275 506.3Z" fill="#151515" stroke="#151515"></path><path d="M316 555.1L308 600L361 600Z" fill="#141414" stroke="#141414"></path><path d="M126 390.7L183 432.6L183 382.7Z" fill="#181818" stroke="#181818"></path><path d="M179 467.4L183 432.6L127 434.6Z" fill="#151515" stroke="#151515"></path><path d="M725 127.6L679 93.7L673 129.6Z" fill="#141414" stroke="#141414"></path><path d="M801 254.1L769 254.1L767 307Z" fill="#141414" stroke="#141414"></path><path d="M767 307L769 254.1L723 266.1Z" fill="#1a1a1a" stroke="#1a1a1a"></path><path d="M179 467.4L230 516.3L234 470.4Z" fill="#1b1b1b" stroke="#1b1b1b"></path><path d="M311 42.9L263 77.7L317 83.7Z" fill="#141414" stroke="#141414"></path><path d="M185 129.6L185 177.4L227 131.6Z" fill="#1c1c1c" stroke="#1c1c1c"></path><path d="M227 131.6L185 177.4L229 178.4Z" fill="#1c1c1c" stroke="#1c1c1c"></path><path d="M130 296L170 304L128 257.1Z" fill="#151515" stroke="#151515"></path><path d="M351 40.9L311 42.9L317 83.7Z" fill="#191919" stroke="#191919"></path><path d="M540 600L592 600L575 549.1Z" fill="#1b1b1b" stroke="#1b1b1b"></path><path d="M769 254.1L761 210.3L721 222.3Z" fill="#151515" stroke="#151515"></path><path d="M729 168.4L725 127.6L673 129.6Z" fill="#1b1b1b" stroke="#1b1b1b"></path><path d="M681 44.9L629 46.9L633 92.7Z" fill="#1b1b1b" stroke="#1b1b1b"></path><path d="M760 432.6L715 394.7L719 434.6Z" fill="#141414" stroke="#141414"></path><path d="M813 296L801 254.1L767 307Z" fill="#1b1b1b" stroke="#1b1b1b"></path><path d="M535 0L494 40.9L542 44.9Z" fill="#1a1a1a" stroke="#1a1a1a"></path><path d="M494 40.9L487 0L445 49.9Z" fill="#161616" stroke="#161616"></path><path d="M351 40.9L305 0L311 42.9Z" fill="#191919" stroke="#191919"></path><path d="M535 0L542 44.9L575 41.9Z" fill="#1b1b1b" stroke="#1b1b1b"></path><path d="M487 0L443 0L445 49.9Z" fill="#171717" stroke="#171717"></path><path d="M773 479.4L760 432.6L714 475.4Z" fill="#1a1a1a" stroke="#1a1a1a"></path><path d="M714 475.4L760 432.6L719 434.6Z" fill="#151515" stroke="#151515"></path><path d="M727 505.3L714 475.4L677 515.3Z" fill="#141414" stroke="#141414"></path><path d="M230 516.3L270 565.1L275 506.3Z" fill="#1b1b1b" stroke="#1b1b1b"></path><path d="M443 0L409 0L445 49.9Z" fill="#131313" stroke="#131313"></path><path d="M757 121.6L725 127.6L729 168.4Z" fill="#171717" stroke="#171717"></path><path d="M624 0L591 0L629 46.9Z" fill="#151515" stroke="#151515"></path><path d="M591 0L535 0L575 41.9Z" fill="#1c1c1c" stroke="#1c1c1c"></path><path d="M717 565.1L727 505.3L677 515.3Z" fill="#141414" stroke="#141414"></path><path d="M677 561.1L677 515.3L637 557.1Z" fill="#171717" stroke="#171717"></path><path d="M140 333.9L183 382.7L174 337.9Z" fill="#171717" stroke="#171717"></path><path d="M183 432.6L179 467.4L234 470.4Z" fill="#1a1a1a" stroke="#1a1a1a"></path><path d="M230 516.3L220 547.1L270 565.1Z" fill="#1b1b1b" stroke="#1b1b1b"></path><path d="M592 600L620 600L637 557.1Z" fill="#171717" stroke="#171717"></path><path d="M665 600L677 561.1L637 557.1Z" fill="#1b1b1b" stroke="#1b1b1b"></path><path d="M170 304L183 253.1L128 257.1Z" fill="#161616" stroke="#161616"></path><path d="M170 304L140 333.9L174 337.9Z" fill="#141414" stroke="#141414"></path><path d="M270 565.1L308 600L316 555.1Z" fill="#181818" stroke="#181818"></path><path d="M806 174.4L762 168.4L761 210.3Z" fill="#141414" stroke="#141414"></path><path d="M761 210.3L762 168.4L729 168.4Z" fill="#1c1c1c" stroke="#1c1c1c"></path><path d="M409 0L362 0L400 51.9Z" fill="#191919" stroke="#191919"></path><path d="M263 41.9L228 79.7L263 77.7Z" fill="#151515" stroke="#151515"></path><path d="M263 41.9L263 77.7L311 42.9Z" fill="#1c1c1c" stroke="#1c1c1c"></path><path d="M263 77.7L228 79.7L268 120.6Z" fill="#151515" stroke="#151515"></path><path d="M228 79.7L185 129.6L227 131.6Z" fill="#1b1b1b" stroke="#1b1b1b"></path><path d="M128 257.1L183 253.1L182 217.3Z" fill="#191919" stroke="#191919"></path><path d="M128 257.1L182 217.3L133 205.3Z" fill="#1a1a1a" stroke="#1a1a1a"></path><path d="M185 549.1L220 547.1L230 516.3Z" fill="#141414" stroke="#141414"></path><path d="M270 565.1L269 600L308 600Z" fill="#151515" stroke="#151515"></path><path d="M629 46.9L591 0L575 41.9Z" fill="#141414" stroke="#141414"></path><path d="M681 44.9L633 92.7L679 93.7Z" fill="#1c1c1c" stroke="#1c1c1c"></path><path d="M305 0L263 41.9L311 42.9Z" fill="#1c1c1c" stroke="#1c1c1c"></path><path d="M813 296L767 307L768 333.9Z" fill="#191919" stroke="#191919"></path><path d="M769 254.1L801 254.1L761 210.3Z" fill="#161616" stroke="#161616"></path><path d="M133 205.3L182 217.3L185 177.4Z" fill="#191919" stroke="#191919"></path><path d="M816 377.7L806 350.9L771 387.7Z" fill="#171717" stroke="#171717"></path><path d="M771 387.7L806 350.9L768 333.9Z" fill="#151515" stroke="#151515"></path><path d="M816 377.7L771 387.7L812 421.6Z" fill="#191919" stroke="#191919"></path><path d="M728 85.7L679 93.7L725 127.6Z" fill="#1c1c1c" stroke="#1c1c1c"></path><path d="M728 85.7L681 44.9L679 93.7Z" fill="#1b1b1b" stroke="#1b1b1b"></path><path d="M231 600L269 600L270 565.1Z" fill="#1a1a1a" stroke="#1a1a1a"></path><path d="M95 347.9L126 390.7L140 333.9Z" fill="#181818" stroke="#181818"></path><path d="M140 333.9L126 390.7L183 382.7Z" fill="#181818" stroke="#181818"></path><path d="M179 467.4L170 509.3L230 516.3Z" fill="#1b1b1b" stroke="#1b1b1b"></path><path d="M95 306L140 333.9L130 296Z" fill="#1b1b1b" stroke="#1b1b1b"></path><path d="M757 121.6L728 85.7L725 127.6Z" fill="#1a1a1a" stroke="#1a1a1a"></path><path d="M757 121.6L729 168.4L762 168.4Z" fill="#181818" stroke="#181818"></path><path d="M806 350.9L813 296L768 333.9Z" fill="#1a1a1a" stroke="#1a1a1a"></path><path d="M620 600L665 600L637 557.1Z" fill="#191919" stroke="#191919"></path><path d="M677 561.1L717 565.1L677 515.3Z" fill="#1c1c1c" stroke="#1c1c1c"></path><path d="M766 508.3L773 479.4L727 505.3Z" fill="#181818" stroke="#181818"></path><path d="M727 505.3L773 479.4L714 475.4Z" fill="#1a1a1a" stroke="#1a1a1a"></path><path d="M803 133.6L757 121.6L762 168.4Z" fill="#141414" stroke="#141414"></path><path d="M138 175.4L133 205.3L185 177.4Z" fill="#171717" stroke="#171717"></path><path d="M670 0L624 0L629 46.9Z" fill="#1c1c1c" stroke="#1c1c1c"></path><path d="M362 0L305 0L351 40.9Z" fill="#181818" stroke="#181818"></path><path d="M136 479.4L170 509.3L179 467.4Z" fill="#1b1b1b" stroke="#1b1b1b"></path><path d="M220 547.1L231 600L270 565.1Z" fill="#181818" stroke="#181818"></path><path d="M143 124.6L138 175.4L185 129.6Z" fill="#151515" stroke="#151515"></path><path d="M185 129.6L138 175.4L185 177.4Z" fill="#1c1c1c" stroke="#1c1c1c"></path><path d="M186 78.7L185 129.6L228 79.7Z" fill="#1a1a1a" stroke="#1a1a1a"></path><path d="M720 600L717 565.1L677 561.1Z" fill="#161616" stroke="#161616"></path><path d="M812 421.6L771 387.7L760 432.6Z" fill="#1a1a1a" stroke="#1a1a1a"></path><path d="M806 350.9L855 350.9L813 296Z" fill="#181818" stroke="#181818"></path><path d="M758 562.1L766 508.3L727 505.3Z" fill="#1a1a1a" stroke="#1a1a1a"></path><path d="M808 473.4L812 421.6L760 432.6Z" fill="#1a1a1a" stroke="#1a1a1a"></path><path d="M126 390.7L127 434.6L183 432.6Z" fill="#191919" stroke="#191919"></path><path d="M808 473.4L760 432.6L773 479.4Z" fill="#191919" stroke="#191919"></path><path d="M222 36.9L228 79.7L263 41.9Z" fill="#1a1a1a" stroke="#1a1a1a"></path><path d="M222 36.9L186 78.7L228 79.7Z" fill="#131313" stroke="#131313"></path><path d="M135 547.1L185 549.1L170 509.3Z" fill="#171717" stroke="#171717"></path><path d="M170 509.3L185 549.1L230 516.3Z" fill="#141414" stroke="#141414"></path><path d="M853 250.1L818 214.3L801 254.1Z" fill="#1b1b1b" stroke="#1b1b1b"></path><path d="M801 254.1L818 214.3L761 210.3Z" fill="#181818" stroke="#181818"></path><path d="M853 250.1L801 254.1L813 296Z" fill="#141414" stroke="#141414"></path><path d="M818 214.3L806 174.4L761 210.3Z" fill="#171717" stroke="#171717"></path><path d="M765 78.7L717 32.9L728 85.7Z" fill="#1a1a1a" stroke="#1a1a1a"></path><path d="M127 434.6L136 479.4L179 467.4Z" fill="#1a1a1a" stroke="#1a1a1a"></path><path d="M230 0L222 36.9L263 41.9Z" fill="#171717" stroke="#171717"></path><path d="M178 600L231 600L220 547.1Z" fill="#161616" stroke="#161616"></path><path d="M86 263.1L130 296L128 257.1Z" fill="#131313" stroke="#131313"></path><path d="M86 263.1L95 306L130 296Z" fill="#1b1b1b" stroke="#1b1b1b"></path><path d="M126 390.7L91 391.7L127 434.6Z" fill="#1a1a1a" stroke="#1a1a1a"></path><path d="M97 507.3L126 512.3L136 479.4Z" fill="#1a1a1a" stroke="#1a1a1a"></path><path d="M86 263.1L128 257.1L95 214.3Z" fill="#1a1a1a" stroke="#1a1a1a"></path><path d="M305 0L267 0L263 41.9Z" fill="#171717" stroke="#171717"></path><path d="M95 306L95 347.9L140 333.9Z" fill="#171717" stroke="#171717"></path><path d="M186 78.7L143 124.6L185 129.6Z" fill="#141414" stroke="#141414"></path><path d="M95 214.3L128 257.1L133 205.3Z" fill="#1c1c1c" stroke="#1c1c1c"></path><path d="M139 87.7L143 124.6L186 78.7Z" fill="#1b1b1b" stroke="#1b1b1b"></path><path d="M717 32.9L670 0L681 44.9Z" fill="#141414" stroke="#141414"></path><path d="M681 44.9L670 0L629 46.9Z" fill="#1a1a1a" stroke="#1a1a1a"></path><path d="M717 32.9L681 44.9L728 85.7Z" fill="#1a1a1a" stroke="#1a1a1a"></path><path d="M765 78.7L728 85.7L757 121.6Z" fill="#181818" stroke="#181818"></path><path d="M812 507.3L773 479.4L766 508.3Z" fill="#1c1c1c" stroke="#1c1c1c"></path><path d="M812 507.3L808 473.4L773 479.4Z" fill="#141414" stroke="#141414"></path><path d="M863 376.7L855 350.9L816 377.7Z" fill="#131313" stroke="#131313"></path><path d="M812 90.7L765 78.7L757 121.6Z" fill="#181818" stroke="#181818"></path><path d="M49 349.9L91 391.7L95 347.9Z" fill="#141414" stroke="#141414"></path><path d="M95 347.9L91 391.7L126 390.7Z" fill="#181818" stroke="#181818"></path><path d="M95 214.3L133 205.3L98 180.4Z" fill="#1b1b1b" stroke="#1b1b1b"></path><path d="M95 306L49 349.9L95 347.9Z" fill="#141414" stroke="#141414"></path><path d="M665 600L720 600L677 561.1Z" fill="#181818" stroke="#181818"></path><path d="M717 565.1L758 562.1L727 505.3Z" fill="#1a1a1a" stroke="#1a1a1a"></path><path d="M847 124.6L803 133.6L806 174.4Z" fill="#1a1a1a" stroke="#1a1a1a"></path><path d="M806 174.4L803 133.6L762 168.4Z" fill="#1a1a1a" stroke="#1a1a1a"></path><path d="M98 180.4L133 205.3L138 175.4Z" fill="#191919" stroke="#191919"></path><path d="M720 600L758 562.1L717 565.1Z" fill="#191919" stroke="#191919"></path><path d="M93 136.6L98 180.4L138 175.4Z" fill="#131313" stroke="#131313"></path><path d="M95 214.3L54 259.1L86 263.1Z" fill="#141414" stroke="#141414"></path><path d="M176 0L179 47.9L222 36.9Z" fill="#181818" stroke="#181818"></path><path d="M222 36.9L179 47.9L186 78.7Z" fill="#1a1a1a" stroke="#1a1a1a"></path><path d="M143 124.6L93 136.6L138 175.4Z" fill="#141414" stroke="#141414"></path><path d="M845 435.6L816 377.7L812 421.6Z" fill="#141414" stroke="#141414"></path><path d="M816 377.7L855 350.9L806 350.9Z" fill="#181818" stroke="#181818"></path><path d="M818 214.3L864 167.4L806 174.4Z" fill="#161616" stroke="#161616"></path><path d="M267 0L230 0L263 41.9Z" fill="#171717" stroke="#171717"></path><path d="M87 461.4L136 479.4L127 434.6Z" fill="#191919" stroke="#191919"></path><path d="M136 479.4L126 512.3L170 509.3Z" fill="#171717" stroke="#171717"></path><path d="M185 549.1L178 600L220 547.1Z" fill="#151515" stroke="#151515"></path><path d="M859 292L853 250.1L813 296Z" fill="#1b1b1b" stroke="#1b1b1b"></path><path d="M855 350.9L859 292L813 296Z" fill="#151515" stroke="#151515"></path><path d="M91 391.7L87 431.6L127 434.6Z" fill="#1a1a1a" stroke="#1a1a1a"></path><path d="M52 419.6L87 431.6L91 391.7Z" fill="#171717" stroke="#171717"></path><path d="M814 566.1L812 507.3L766 508.3Z" fill="#1a1a1a" stroke="#1a1a1a"></path><path d="M808 473.4L845 435.6L812 421.6Z" fill="#1c1c1c" stroke="#1c1c1c"></path><path d="M179 47.9L139 87.7L186 78.7Z" fill="#161616" stroke="#161616"></path><path d="M846 477.4L845 435.6L808 473.4Z" fill="#151515" stroke="#151515"></path><path d="M900 256.1L855 220.3L853 250.1Z" fill="#181818" stroke="#181818"></path><path d="M853 250.1L855 220.3L818 214.3Z" fill="#171717" stroke="#171717"></path><path d="M845 435.6L863 376.7L816 377.7Z" fill="#161616" stroke="#161616"></path><path d="M900 346.9L900 291L859 292Z" fill="#171717" stroke="#171717"></path><path d="M87 552.1L135 547.1L126 512.3Z" fill="#1a1a1a" stroke="#1a1a1a"></path><path d="M126 512.3L135 547.1L170 509.3Z" fill="#1b1b1b" stroke="#1b1b1b"></path><path d="M135 547.1L178 600L185 549.1Z" fill="#171717" stroke="#171717"></path><path d="M87 431.6L87 461.4L127 434.6Z" fill="#1c1c1c" stroke="#1c1c1c"></path><path d="M41 464.4L87 461.4L87 431.6Z" fill="#191919" stroke="#191919"></path><path d="M766 0L723 0L717 32.9Z" fill="#131313" stroke="#131313"></path><path d="M717 32.9L723 0L670 0Z" fill="#161616" stroke="#161616"></path><path d="M774 48.9L717 32.9L765 78.7Z" fill="#191919" stroke="#191919"></path><path d="M774 48.9L765 78.7L800 43.9Z" fill="#161616" stroke="#161616"></path><path d="M812 90.7L757 121.6L803 133.6Z" fill="#181818" stroke="#181818"></path><path d="M139 87.7L93 136.6L143 124.6Z" fill="#191919" stroke="#191919"></path><path d="M37 209.3L54 259.1L95 214.3Z" fill="#151515" stroke="#151515"></path><path d="M847 124.6L812 90.7L803 133.6Z" fill="#171717" stroke="#171717"></path><path d="M720 600L763 600L758 562.1Z" fill="#1a1a1a" stroke="#1a1a1a"></path><path d="M758 562.1L814 566.1L766 508.3Z" fill="#161616" stroke="#161616"></path><path d="M812 507.3L846 477.4L808 473.4Z" fill="#171717" stroke="#171717"></path><path d="M900 393.7L900 346.9L863 376.7Z" fill="#131313" stroke="#131313"></path><path d="M862 522.3L846 477.4L812 507.3Z" fill="#1a1a1a" stroke="#1a1a1a"></path><path d="M37 209.3L95 214.3L98 180.4Z" fill="#161616" stroke="#161616"></path><path d="M86 263.1L41 309L95 306Z" fill="#1b1b1b" stroke="#1b1b1b"></path><path d="M87 461.4L97 507.3L136 479.4Z" fill="#131313" stroke="#131313"></path><path d="M135 547.1L132 600L178 600Z" fill="#181818" stroke="#181818"></path><path d="M41 309L49 349.9L95 306Z" fill="#1a1a1a" stroke="#1a1a1a"></path><path d="M87 461.4L41 464.4L97 507.3Z" fill="#171717" stroke="#171717"></path><path d="M54 259.1L41 309L86 263.1Z" fill="#131313" stroke="#131313"></path><path d="M855 220.3L864 167.4L818 214.3Z" fill="#1c1c1c" stroke="#1c1c1c"></path><path d="M900 211.3L864 167.4L855 220.3Z" fill="#1a1a1a" stroke="#1a1a1a"></path><path d="M900 256.1L853 250.1L859 292Z" fill="#141414" stroke="#141414"></path><path d="M864 167.4L847 124.6L806 174.4Z" fill="#191919" stroke="#191919"></path><path d="M812 90.7L800 43.9L765 78.7Z" fill="#191919" stroke="#191919"></path><path d="M35 380.7L91 391.7L49 349.9Z" fill="#181818" stroke="#181818"></path><path d="M35 380.7L52 419.6L91 391.7Z" fill="#1a1a1a" stroke="#1a1a1a"></path><path d="M230 0L176 0L222 36.9Z" fill="#131313" stroke="#131313"></path><path d="M179 47.9L135 37.9L139 87.7Z" fill="#171717" stroke="#171717"></path><path d="M139 87.7L83 76.7L93 136.6Z" fill="#1a1a1a" stroke="#1a1a1a"></path><path d="M850 81.7L800 43.9L812 90.7Z" fill="#141414" stroke="#141414"></path><path d="M774 48.9L766 0L717 32.9Z" fill="#131313" stroke="#131313"></path><path d="M763 600L814 566.1L758 562.1Z" fill="#151515" stroke="#151515"></path><path d="M176 0L135 37.9L179 47.9Z" fill="#151515" stroke="#151515"></path><path d="M800 43.9L766 0L774 48.9Z" fill="#161616" stroke="#161616"></path><path d="M900 346.9L855 350.9L863 376.7Z" fill="#151515" stroke="#151515"></path><path d="M900 346.9L859 292L855 350.9Z" fill="#1b1b1b" stroke="#1b1b1b"></path><path d="M0 376.7L35 380.7L49 349.9Z" fill="#1b1b1b" stroke="#1b1b1b"></path><path d="M900 393.7L845 435.6L900 434.6Z" fill="#181818" stroke="#181818"></path><path d="M900 393.7L863 376.7L845 435.6Z" fill="#1a1a1a" stroke="#1a1a1a"></path><path d="M900 291L900 256.1L859 292Z" fill="#131313" stroke="#131313"></path><path d="M900 84.7L850 81.7L847 124.6Z" fill="#181818" stroke="#181818"></path><path d="M87 552.1L132 600L135 547.1Z" fill="#141414" stroke="#141414"></path><path d="M87 552.1L126 512.3L97 507.3Z" fill="#1a1a1a" stroke="#1a1a1a"></path><path d="M54 259.1L0 298L41 309Z" fill="#1b1b1b" stroke="#1b1b1b"></path><path d="M41 309L0 333.9L49 349.9Z" fill="#131313" stroke="#131313"></path><path d="M36 162.4L37 209.3L98 180.4Z" fill="#1a1a1a" stroke="#1a1a1a"></path><path d="M36 162.4L98 180.4L93 136.6Z" fill="#151515" stroke="#151515"></path><path d="M900 434.6L845 435.6L900 462.4Z" fill="#151515" stroke="#151515"></path><path d="M900 256.1L900 211.3L855 220.3Z" fill="#1b1b1b" stroke="#1b1b1b"></path><path d="M847 124.6L850 81.7L812 90.7Z" fill="#161616" stroke="#161616"></path><path d="M41 464.4L87 431.6L52 419.6Z" fill="#191919" stroke="#191919"></path><path d="M36 510.3L87 552.1L97 507.3Z" fill="#171717" stroke="#171717"></path><path d="M763 600L810 600L814 566.1Z" fill="#151515" stroke="#151515"></path><path d="M814 566.1L862 522.3L812 507.3Z" fill="#151515" stroke="#151515"></path><path d="M862 562.1L862 522.3L814 566.1Z" fill="#1a1a1a" stroke="#1a1a1a"></path><path d="M900 134.6L847 124.6L864 167.4Z" fill="#181818" stroke="#181818"></path><path d="M800 43.9L814 0L766 0Z" fill="#1c1c1c" stroke="#1c1c1c"></path><path d="M82 39.9L83 76.7L135 37.9Z" fill="#141414" stroke="#141414"></path><path d="M135 37.9L83 76.7L139 87.7Z" fill="#131313" stroke="#131313"></path><path d="M0 435.6L41 464.4L52 419.6Z" fill="#141414" stroke="#141414"></path><path d="M900 462.4L845 435.6L846 477.4Z" fill="#161616" stroke="#161616"></path><path d="M41 121.6L36 162.4L93 136.6Z" fill="#151515" stroke="#151515"></path><path d="M0 253.1L0 298L54 259.1Z" fill="#1a1a1a" stroke="#1a1a1a"></path><path d="M176 0L133 0L135 37.9Z" fill="#1c1c1c" stroke="#1c1c1c"></path><path d="M900 509.3L900 462.4L846 477.4Z" fill="#141414" stroke="#141414"></path><path d="M900 211.3L900 161.4L864 167.4Z" fill="#141414" stroke="#141414"></path><path d="M0 253.1L54 259.1L37 209.3Z" fill="#161616" stroke="#161616"></path><path d="M35 380.7L0 435.6L52 419.6Z" fill="#141414" stroke="#141414"></path><path d="M0 298L0 333.9L41 309Z" fill="#161616" stroke="#161616"></path><path d="M83 76.7L41 121.6L93 136.6Z" fill="#151515" stroke="#151515"></path><path d="M0 218.3L0 253.1L37 209.3Z" fill="#191919" stroke="#191919"></path><path d="M53 80.7L41 121.6L83 76.7Z" fill="#181818" stroke="#181818"></path><path d="M860 600L862 562.1L814 566.1Z" fill="#1a1a1a" stroke="#1a1a1a"></path><path d="M862 522.3L900 509.3L846 477.4Z" fill="#191919" stroke="#191919"></path><path d="M0 218.3L37 209.3L0 169.4Z" fill="#1a1a1a" stroke="#1a1a1a"></path><path d="M858 46.9L800 43.9L850 81.7Z" fill="#131313" stroke="#131313"></path><path d="M858 46.9L814 0L800 43.9Z" fill="#161616" stroke="#161616"></path><path d="M0 333.9L0 376.7L49 349.9Z" fill="#141414" stroke="#141414"></path><path d="M900 161.4L900 134.6L864 167.4Z" fill="#151515" stroke="#151515"></path><path d="M95 0L82 39.9L135 37.9Z" fill="#1b1b1b" stroke="#1b1b1b"></path><path d="M0 473.4L36 510.3L41 464.4Z" fill="#181818" stroke="#181818"></path><path d="M41 464.4L36 510.3L97 507.3Z" fill="#181818" stroke="#181818"></path><path d="M87 552.1L88 600L132 600Z" fill="#171717" stroke="#171717"></path><path d="M47 565.1L88 600L87 552.1Z" fill="#181818" stroke="#181818"></path><path d="M82 39.9L53 80.7L83 76.7Z" fill="#141414" stroke="#141414"></path><path d="M0 169.4L37 209.3L36 162.4Z" fill="#1a1a1a" stroke="#1a1a1a"></path><path d="M900 84.7L858 46.9L850 81.7Z" fill="#131313" stroke="#131313"></path><path d="M0 169.4L36 162.4L0 135.6Z" fill="#171717" stroke="#171717"></path><path d="M900 557.1L900 509.3L862 522.3Z" fill="#141414" stroke="#141414"></path><path d="M0 376.7L0 435.6L35 380.7Z" fill="#1a1a1a" stroke="#1a1a1a"></path><path d="M133 0L95 0L135 37.9Z" fill="#141414" stroke="#141414"></path><path d="M82 39.9L45 33.9L53 80.7Z" fill="#181818" stroke="#181818"></path><path d="M0 135.6L41 121.6L0 77.7Z" fill="#151515" stroke="#151515"></path><path d="M0 135.6L36 162.4L41 121.6Z" fill="#131313" stroke="#131313"></path><path d="M810 600L860 600L814 566.1Z" fill="#191919" stroke="#191919"></path><path d="M862 562.1L900 557.1L862 522.3Z" fill="#161616" stroke="#161616"></path><path d="M0 559.1L47 565.1L36 510.3Z" fill="#1a1a1a" stroke="#1a1a1a"></path><path d="M36 510.3L47 565.1L87 552.1Z" fill="#191919" stroke="#191919"></path><path d="M900 134.6L900 84.7L847 124.6Z" fill="#1a1a1a" stroke="#1a1a1a"></path><path d="M858 46.9L846 0L814 0Z" fill="#1c1c1c" stroke="#1c1c1c"></path><path d="M0 435.6L0 473.4L41 464.4Z" fill="#171717" stroke="#171717"></path><path d="M900 0L846 0L858 46.9Z" fill="#171717" stroke="#171717"></path><path d="M900 600L900 557.1L862 562.1Z" fill="#191919" stroke="#191919"></path><path d="M0 77.7L41 121.6L53 80.7Z" fill="#1a1a1a" stroke="#1a1a1a"></path><path d="M47 0L45 33.9L82 39.9Z" fill="#131313" stroke="#131313"></path><path d="M0 473.4L0 517.3L36 510.3Z" fill="#141414" stroke="#141414"></path><path d="M900 84.7L900 41.9L858 46.9Z" fill="#1a1a1a" stroke="#1a1a1a"></path><path d="M0 559.1L38 600L47 565.1Z" fill="#1a1a1a" stroke="#1a1a1a"></path><path d="M47 565.1L38 600L88 600Z" fill="#1a1a1a" stroke="#1a1a1a"></path><path d="M860 600L900 600L862 562.1Z" fill="#1c1c1c" stroke="#1c1c1c"></path><path d="M45 33.9L0 77.7L53 80.7Z" fill="#191919" stroke="#191919"></path><path d="M95 0L47 0L82 39.9Z" fill="#151515" stroke="#151515"></path><path d="M45 33.9L0 40.9L0 77.7Z" fill="#161616" stroke="#161616"></path><path d="M0 517.3L0 559.1L36 510.3Z" fill="#191919" stroke="#191919"></path><path d="M900 41.9L900 0L858 46.9Z" fill="#1a1a1a" stroke="#1a1a1a"></path><path d="M0 0L0 40.9L45 33.9Z" fill="#1b1b1b" stroke="#1b1b1b"></path><path d="M0 559.1L0 600L38 600Z" fill="#141414" stroke="#141414"></path><path d="M47 0L0 0L45 33.9Z" fill="#1a1a1a" stroke="#1a1a1a"></path></g></svg>